<svg xmlns="http://www.w3.org/2000/svg" viewBox="0 0 100 100" enable-background="new 0 0 100 100"><circle fill="#232c3a" cx="50" cy="50" r="50"/><path opacity=".7" fill="#131a26" d="m63.857 46.24l8.375-8.375-10.574-10.575-8.457 8.456-8.456-8.456-8.698 8.698-8.698-8.698-27.15 27.15c.999 11.278 5.808 22.283 14.44 30.916 8.592 8.592 19.533 13.399 30.756 14.43l27.25-27.25-8.75-8.75 8.75-8.75-8.793-8.791"/><circle fill="#f3278e" cx="32.845" cy="32.475" r="7.477"/><circle fill="#e21e89" cx="32.844" cy="32.475" r="6.12"/><g fill="#f3278e"><path d="m37.923 32.475c0 2.806-2.275 5.081-5.078 5.081-2.809 0-5.078-2.275-5.078-5.081s2.27-5.077 5.078-5.077c2.802 0 5.078 2.271 5.078 5.077"/><path d="m57.719 32.475c0 4.132-3.35 7.479-7.475 7.479-4.134 0-7.479-3.347-7.479-7.479 0-4.128 3.346-7.476 7.479-7.476 4.125.001 7.475 3.348 7.475 7.476"/></g><circle fill="#e21e89" cx="50.24" cy="32.475" r="6.123"/><path fill="#f3278e" d="m55.32 32.475c0 2.806-2.271 5.081-5.075 5.081-2.808 0-5.081-2.275-5.081-5.081s2.273-5.077 5.081-5.077c2.805 0 5.075 2.271 5.075 5.077"/><path fill="#fab836" d="m74.63 32.475c0 4.132-3.35 7.479-7.476 7.479-4.132 0-7.479-3.347-7.479-7.479 0-4.128 3.348-7.476 7.479-7.476 4.126.001 7.476 3.348 7.476 7.476"/><circle fill="#eaa62f" cx="67.15" cy="32.475" r="6.122"/><path fill="#fab836" d="m72.23 32.475c0 2.806-2.271 5.081-5.076 5.081-2.808 0-5.079-2.275-5.079-5.081s2.271-5.077 5.079-5.077c2.805 0 5.076 2.271 5.076 5.077"/><circle fill="#f3278e" cx="32.845" cy="49.957" r="7.477"/><circle fill="#e21e89" cx="32.844" cy="49.957" r="6.12"/><path fill="#f3278e" d="m37.923 49.957c0 2.804-2.275 5.08-5.078 5.08-2.809 0-5.078-2.275-5.078-5.08 0-2.806 2.27-5.078 5.078-5.078 2.802-.001 5.078 2.272 5.078 5.078"/><path fill="#fab836" d="m57.719 49.957c0 4.131-3.35 7.477-7.475 7.477-4.134 0-7.479-3.346-7.479-7.477 0-4.129 3.346-7.476 7.479-7.476 4.125 0 7.475 3.347 7.475 7.476"/><circle fill="#eaa62f" cx="50.24" cy="49.957" r="6.123"/><path fill="#fab836" d="m55.32 49.957c0 2.804-2.271 5.08-5.075 5.08-2.808 0-5.081-2.275-5.081-5.08 0-2.806 2.273-5.078 5.081-5.078 2.805-.001 5.075 2.272 5.075 5.078"/><path fill="#f3278e" d="m74.63 49.957c0 4.131-3.35 7.477-7.476 7.477-4.132 0-7.479-3.346-7.479-7.477 0-4.129 3.348-7.476 7.479-7.476 4.126 0 7.476 3.347 7.476 7.476"/><circle fill="#e21e89" cx="67.15" cy="49.957" r="6.122"/><path fill="#f3278e" d="m72.23 49.957c0 2.804-2.271 5.08-5.076 5.08-2.808 0-5.079-2.275-5.079-5.08 0-2.806 2.271-5.078 5.079-5.078 2.805-.001 5.076 2.272 5.076 5.078"/><circle fill="#fab836" cx="32.845" cy="67.52" r="7.477"/><circle fill="#eaa62f" cx="32.844" cy="67.52" r="6.12"/><path fill="#fab836" d="m37.923 67.52c0 2.805-2.275 5.081-5.078 5.081-2.809 0-5.078-2.276-5.078-5.081s2.27-5.078 5.078-5.078c2.802-.001 5.078 2.273 5.078 5.078"/><path fill="#f3278e" d="m57.719 67.52c0 4.131-3.35 7.479-7.475 7.479-4.134 0-7.479-3.348-7.479-7.479 0-4.128 3.346-7.475 7.479-7.475 4.125 0 7.475 3.347 7.475 7.475"/><circle fill="#e21e89" cx="50.24" cy="67.52" r="6.123"/><g fill="#f3278e"><path d="m55.32 67.52c0 2.805-2.271 5.081-5.075 5.081-2.808 0-5.081-2.276-5.081-5.081s2.273-5.078 5.081-5.078c2.805-.001 5.075 2.273 5.075 5.078"/><path d="m74.63 67.52c0 4.131-3.35 7.479-7.476 7.479-4.132 0-7.479-3.348-7.479-7.479 0-4.128 3.348-7.475 7.479-7.475 4.126 0 7.476 3.347 7.476 7.475"/></g><circle fill="#e21e89" cx="67.15" cy="67.52" r="6.122"/><path fill="#f3278e" d="m72.23 67.52c0 2.805-2.271 5.081-5.076 5.081-2.808 0-5.079-2.276-5.079-5.081s2.271-5.078 5.079-5.078c2.805-.001 5.076 2.273 5.076 5.078"/></svg>